<?xml version="1.0" encoding="utf-8"?>
<!-- Generator: Adobe Illustrator 19.0.0, SVG Export Plug-In . SVG Version: 6.00 Build 0)  -->
<svg version="1.1" id="Layer_1" xmlns="http://www.w3.org/2000/svg" xmlns:xlink="http://www.w3.org/1999/xlink" x="0px" y="0px"
	 viewBox="0 0 390 125" style="enable-background:new 0 0 390 125;" xml:space="preserve">
<style type="text/css">
	.st0{fill:#A6A6A6;}
	.st1{fill:#FFFFFF;}
</style>
<g id="XMLID_3_">
	<path id="XMLID_117_" class="st0" d="M371.3,118.7H18.5c-7.3,0-13.3-6-13.3-13.3V19.6c0-7.3,6-13.3,13.3-13.3h352.8
		c7.3,0,13.5,6,13.5,13.3v85.9C384.8,112.7,378.6,118.7,371.3,118.7L371.3,118.7z"/>
	<path id="XMLID_116_" d="M382.1,105.4c0,5.9-4.8,10.8-10.8,10.8H18.5c-6,0-10.8-4.8-10.8-10.8V19.6c0-5.9,4.8-10.8,10.8-10.8h352.8
		c6,0,10.8,4.8,10.8,10.8L382.1,105.4L382.1,105.4z"/>
	<g id="XMLID_112_">
		<g id="XMLID_113_">
			<path id="XMLID_115_" class="st1" d="M89.9,61.9c-0.1-9.1,7.4-13.5,7.8-13.7c-4.2-6.2-10.8-7-13.1-7.1
				c-5.5-0.6-10.9,3.3-13.7,3.3c-2.9,0-7.2-3.3-11.9-3.2c-6,0.1-11.6,3.6-14.7,9c-6.4,11-1.6,27.2,4.5,36.2
				c3.1,4.4,6.6,9.2,11.3,9.1c4.6-0.2,6.3-2.9,11.8-2.9c5.5,0,7.1,2.9,11.8,2.8c4.9-0.1,8-4.4,10.9-8.8c3.5-5,4.9-9.9,5-10.2
				C99.4,76.3,90,72.8,89.9,61.9z"/>
			<path id="XMLID_114_" class="st1" d="M80.9,35.2c2.5-3.1,4.1-7.3,3.7-11.5c-3.6,0.2-8,2.5-10.6,5.5c-2.3,2.6-4.3,7-3.8,11.1
				C74.3,40.6,78.4,38.3,80.9,35.2z"/>
		</g>
	</g>
	<g id="XMLID_89_">
		<path id="XMLID_109_" class="st1" d="M156,94.8h-6.4l-3.5-11H134l-3.3,11h-6.2l12-37.4h7.4L156,94.8z M145.1,79.2l-3.2-9.8
			c-0.3-1-1-3.3-1.9-7h-0.1c-0.4,1.6-1,3.9-1.8,7l-3.1,9.8H145.1z"/>
		<path id="XMLID_106_" class="st1" d="M187,81c0,4.6-1.2,8.2-3.7,10.9c-2.2,2.4-5,3.6-8.3,3.6c-3.6,0-6.1-1.3-7.7-3.8h-0.1v14.2h-6
			V76.7c0-2.9-0.1-5.8-0.2-8.9h5.3l0.3,4.3h0.1c2-3.2,5-4.8,9.1-4.8c3.2,0,5.8,1.3,8,3.8C186,73.6,187,76.9,187,81z M180.9,81.2
			c0-2.6-0.6-4.8-1.8-6.5c-1.3-1.8-3-2.7-5.2-2.7c-1.5,0-2.8,0.5-4,1.5c-1.2,1-2,2.3-2.4,3.9c-0.2,0.7-0.3,1.3-0.3,1.8v4.5
			c0,2,0.6,3.6,1.8,5s2.8,2,4.7,2c2.3,0,4-0.9,5.3-2.6C180.3,86.4,180.9,84.1,180.9,81.2z"/>
		<path id="XMLID_103_" class="st1" d="M218.1,81c0,4.6-1.2,8.2-3.7,10.9c-2.2,2.4-5,3.6-8.3,3.6c-3.6,0-6.1-1.3-7.7-3.8h-0.1v14.2
			h-6V76.7c0-2.9-0.1-5.8-0.2-8.9h5.3l0.3,4.3h0.1c2-3.2,5-4.8,9.1-4.8c3.2,0,5.8,1.3,8,3.8C217,73.6,218.1,76.9,218.1,81z
			 M211.9,81.2c0-2.6-0.6-4.8-1.8-6.5c-1.3-1.8-3-2.7-5.2-2.7c-1.5,0-2.8,0.5-4,1.5c-1.2,1-2,2.3-2.4,3.9c-0.2,0.7-0.3,1.3-0.3,1.8
			v4.5c0,2,0.6,3.6,1.8,5c1.2,1.3,2.8,2,4.7,2c2.3,0,4-0.9,5.3-2.6C211.3,86.4,211.9,84.1,211.9,81.2z"/>
		<path id="XMLID_102_" class="st1" d="M252.7,84.4c0,3.2-1.1,5.8-3.3,7.8c-2.4,2.2-5.8,3.3-10.2,3.3c-4,0-7.3-0.8-9.7-2.3l1.4-5
			c2.6,1.6,5.5,2.4,8.7,2.4c2.3,0,4-0.5,5.3-1.5c1.3-1,1.9-2.4,1.9-4.1c0-1.5-0.5-2.8-1.6-3.8c-1-1-2.8-2-5.2-2.9
			c-6.6-2.4-9.8-6-9.8-10.7c0-3.1,1.1-5.6,3.4-7.6c2.3-2,5.3-2.9,9.2-2.9c3.4,0,6.2,0.6,8.5,1.8l-1.5,4.9c-2.1-1.1-4.5-1.7-7.2-1.7
			c-2.1,0-3.8,0.5-4.9,1.6c-1,0.9-1.5,2.1-1.5,3.4c0,1.5,0.6,2.7,1.7,3.7c1,0.9,2.8,1.9,5.4,2.9c3.2,1.3,5.6,2.8,7.1,4.5
			C252,79.6,252.7,81.8,252.7,84.4z"/>
		<path id="XMLID_101_" class="st1" d="M272.6,72.4H266v13.1c0,3.3,1.2,5,3.5,5c1.1,0,2-0.1,2.7-0.3l0.2,4.6
			c-1.2,0.4-2.7,0.7-4.7,0.7c-2.4,0-4.2-0.7-5.6-2.2c-1.3-1.4-2-3.9-2-7.3V72.4h-3.9v-4.5h3.9v-4.9l5.9-1.8v6.7h6.6
			C272.6,67.9,272.6,72.4,272.6,72.4z"/>
		<path id="XMLID_98_" class="st1" d="M302.4,81.1c0,4.1-1.2,7.6-3.6,10.2c-2.5,2.7-5.8,4.1-9.9,4.1c-4,0-7.1-1.3-9.5-3.9
			c-2.4-2.6-3.5-5.9-3.5-9.9c0-4.2,1.2-7.6,3.6-10.3c2.4-2.7,5.7-4,9.8-4c4,0,7.1,1.3,9.5,3.9C301.2,73.8,302.4,77.1,302.4,81.1z
			 M296.2,81.3c0-2.5-0.5-4.6-1.6-6.4c-1.3-2.2-3.1-3.2-5.4-3.2c-2.4,0-4.2,1.1-5.5,3.2c-1.1,1.8-1.6,4-1.6,6.5
			c0,2.5,0.5,4.6,1.6,6.4c1.3,2.2,3.1,3.2,5.4,3.2c2.3,0,4.1-1.1,5.4-3.3C295.6,86,296.2,83.8,296.2,81.3z"/>
		<path id="XMLID_97_" class="st1" d="M321.9,73.1c-0.6-0.1-1.2-0.2-1.9-0.2c-2.1,0-3.7,0.8-4.9,2.4c-1,1.4-1.5,3.2-1.5,5.3v14.2h-6
			l0.1-18.5c0-3.1-0.1-5.9-0.2-8.5h5.2l0.2,5.2h0.2c0.6-1.8,1.6-3.2,3-4.3c1.3-1,2.8-1.4,4.3-1.4c0.6,0,1.1,0,1.5,0.1
			C321.9,67.4,321.9,73.1,321.9,73.1z"/>
		<path id="XMLID_91_" class="st1" d="M348.7,80.1c0,1.1-0.1,2-0.2,2.7h-18c0.1,2.7,0.9,4.7,2.6,6.1c1.5,1.3,3.5,1.9,5.9,1.9
			c2.7,0,5.1-0.4,7.3-1.3l0.9,4.2c-2.6,1.1-5.6,1.7-9,1.7c-4.2,0-7.5-1.2-9.9-3.7c-2.4-2.5-3.6-5.8-3.6-9.9c0-4.1,1.1-7.5,3.3-10.2
			c2.3-2.9,5.5-4.3,9.4-4.3c3.9,0,6.8,1.4,8.8,4.3C347.9,73.9,348.7,76.7,348.7,80.1z M343,78.5c0-1.8-0.4-3.3-1.2-4.6
			c-1-1.7-2.6-2.5-4.8-2.5c-2,0-3.6,0.8-4.8,2.4c-1,1.3-1.6,2.9-1.8,4.7L343,78.5L343,78.5z"/>
	</g>
	<g id="XMLID_4_">
		<g id="XMLID_5_">
			<path id="XMLID_83_" class="st1" d="M143.1,34.4c0,3.3-1,5.8-3,7.5c-1.8,1.5-4.4,2.3-7.8,2.3c-1.7,0-3.1-0.1-4.3-0.2V25.9
				c1.6-0.3,3.3-0.4,5.1-0.4c3.2,0,5.6,0.7,7.3,2.1C142.2,29.2,143.1,31.5,143.1,34.4z M140,34.5c0-2.1-0.6-3.8-1.7-4.9
				c-1.1-1.1-2.8-1.7-5-1.7c-0.9,0-1.7,0.1-2.4,0.2v13.7c0.4,0.1,1,0.1,2,0.1c2.3,0,4-0.6,5.2-1.9C139.4,38.7,140,36.9,140,34.5z"/>
			<path id="XMLID_78_" class="st1" d="M159.6,37.3c0,2-0.6,3.7-1.7,5c-1.2,1.3-2.8,2-4.9,2c-1.9,0-3.5-0.6-4.7-1.9
				c-1.2-1.3-1.7-2.9-1.7-4.9c0-2.1,0.6-3.7,1.8-5c1.2-1.3,2.8-2,4.8-2c1.9,0,3.5,0.6,4.7,1.9C159,33.7,159.6,35.3,159.6,37.3z
				 M156.5,37.4c0-1.2-0.3-2.3-0.8-3.1c-0.6-1.1-1.5-1.6-2.6-1.6c-1.2,0-2.1,0.5-2.7,1.6c-0.5,0.9-0.8,1.9-0.8,3.2
				c0,1.2,0.3,2.3,0.8,3.1c0.6,1.1,1.5,1.6,2.7,1.6c1.1,0,2-0.5,2.6-1.6C156.3,39.7,156.5,38.6,156.5,37.4z"/>
			<path id="XMLID_75_" class="st1" d="M181.7,30.8L177.5,44h-2.7l-1.7-5.8c-0.4-1.4-0.8-2.9-1.1-4.3H172c-0.3,1.5-0.6,2.9-1.1,4.3
				l-1.8,5.8h-2.7l-3.9-13.3h3l1.5,6.3c0.4,1.5,0.7,2.9,0.9,4.3h0.1c0.2-1.1,0.6-2.5,1.1-4.2l1.9-6.3h2.4l1.8,6.2
				c0.4,1.5,0.8,3,1.1,4.4h0.1c0.2-1.4,0.5-2.8,0.9-4.4l1.6-6.2L181.7,30.8L181.7,30.8z"/>
			<path id="XMLID_74_" class="st1" d="M197,44H194v-7.6c0-2.3-0.9-3.5-2.7-3.5c-0.9,0-1.6,0.3-2.1,1c-0.5,0.6-0.8,1.4-0.8,2.3V44
				h-2.9v-9.5c0-1.2,0-2.4-0.1-3.8h2.6l0.1,2.1h0.1c0.3-0.6,0.9-1.2,1.5-1.6c0.8-0.5,1.7-0.7,2.7-0.7c1.2,0,2.3,0.4,3.1,1.2
				c1,1,1.5,2.4,1.5,4.4V44z"/>
			<path id="XMLID_72_" class="st1" d="M205.1,44h-2.9V24.7h2.9V44z"/>
			<path id="XMLID_19_" class="st1" d="M222.4,37.3c0,2-0.6,3.7-1.7,5c-1.2,1.3-2.8,2-4.9,2c-1.9,0-3.5-0.6-4.7-1.9
				c-1.2-1.3-1.7-2.9-1.7-4.9c0-2.1,0.6-3.7,1.8-5s2.8-2,4.8-2c1.9,0,3.5,0.6,4.7,1.9C221.9,33.7,222.4,35.3,222.4,37.3z
				 M219.4,37.4c0-1.2-0.3-2.3-0.8-3.1c-0.6-1.1-1.5-1.6-2.6-1.6c-1.2,0-2.1,0.5-2.7,1.6c-0.5,0.9-0.8,1.9-0.8,3.2
				c0,1.2,0.3,2.3,0.8,3.1c0.6,1.1,1.5,1.6,2.7,1.6c1.1,0,2-0.5,2.6-1.6C219.1,39.7,219.4,38.6,219.4,37.4z"/>
			<path id="XMLID_16_" class="st1" d="M236.7,44h-2.6l-0.2-1.5h-0.1c-0.9,1.2-2.2,1.8-3.9,1.8c-1.3,0-2.3-0.4-3-1.2
				c-0.7-0.7-1-1.6-1-2.7c0-1.6,0.7-2.9,2-3.7c1.4-0.9,3.3-1.3,5.7-1.3v-0.2c0-1.7-0.9-2.6-2.8-2.6c-1.3,0-2.5,0.3-3.5,1l-0.6-1.9
				c1.2-0.8,2.8-1.1,4.5-1.1c3.5,0,5.2,1.8,5.2,5.5v4.9C236.5,42.2,236.6,43.3,236.7,44z M233.6,39.5v-2c-3.3-0.1-4.9,0.8-4.9,2.7
				c0,0.7,0.2,1.2,0.6,1.6c0.4,0.3,0.9,0.5,1.4,0.5c0.6,0,1.3-0.2,1.8-0.6c0.6-0.4,0.9-0.9,1-1.6C233.6,39.9,233.6,39.7,233.6,39.5z
				"/>
			<path id="XMLID_14_" class="st1" d="M253.4,44h-2.6l-0.1-2.1h-0.1c-0.8,1.6-2.3,2.4-4.3,2.4c-1.6,0-2.9-0.6-4-1.9
				c-1.1-1.3-1.6-2.9-1.6-4.9c0-2.1,0.6-3.9,1.7-5.2c1.1-1.2,2.5-1.9,4.1-1.9c1.8,0,3,0.6,3.7,1.8h0.1v-7.6h2.9v15.8
				C253.3,41.8,253.4,42.9,253.4,44z M250.4,38.4v-2.2c0-0.4,0-0.7-0.1-0.9c-0.2-0.7-0.5-1.3-1.1-1.8c-0.5-0.5-1.2-0.7-2-0.7
				c-1.1,0-2,0.4-2.6,1.3c-0.6,0.9-0.9,2-0.9,3.4c0,1.3,0.3,2.4,0.9,3.2c0.6,0.9,1.5,1.3,2.6,1.3c1,0,1.7-0.4,2.3-1.1
				C250.1,40.2,250.4,39.4,250.4,38.4z"/>
			<path id="XMLID_53_" class="st1" d="M278.6,37.3c0,2-0.6,3.7-1.7,5c-1.2,1.3-2.8,2-4.9,2c-1.9,0-3.5-0.6-4.7-1.9
				c-1.2-1.3-1.7-2.9-1.7-4.9c0-2.1,0.6-3.7,1.8-5s2.8-2,4.8-2c1.9,0,3.5,0.6,4.7,1.9C278.1,33.7,278.6,35.3,278.6,37.3z
				 M275.6,37.4c0-1.2-0.3-2.3-0.8-3.1c-0.6-1.1-1.5-1.6-2.6-1.6c-1.2,0-2.1,0.5-2.7,1.6c-0.5,0.9-0.8,1.9-0.8,3.2
				c0,1.2,0.3,2.3,0.8,3.1c0.6,1.1,1.5,1.6,2.7,1.6c1.1,0,2-0.5,2.6-1.6C275.3,39.7,275.6,38.6,275.6,37.4z"/>
			<path id="XMLID_11_" class="st1" d="M294.5,44h-2.9v-7.6c0-2.3-0.9-3.5-2.7-3.5c-0.9,0-1.6,0.3-2.1,1c-0.5,0.6-0.8,1.4-0.8,2.3
				V44H283v-9.5c0-1.2,0-2.4-0.1-3.8h2.6l0.1,2.1h0.1c0.3-0.6,0.9-1.2,1.5-1.6c0.8-0.5,1.7-0.7,2.7-0.7c1.2,0,2.3,0.4,3.1,1.2
				c1,1,1.5,2.4,1.5,4.4V44z"/>
			<path id="XMLID_10_" class="st1" d="M314.3,33h-3.2v6.4c0,1.6,0.6,2.5,1.7,2.5c0.5,0,1,0,1.3-0.1l0.1,2.2
				c-0.6,0.2-1.3,0.3-2.3,0.3c-1.2,0-2.1-0.4-2.7-1.1c-0.7-0.7-1-1.9-1-3.6V33h-1.9v-2.2h1.9v-2.4l2.9-0.9v3.3h3.2L314.3,33
				L314.3,33z"/>
			<path id="XMLID_9_" class="st1" d="M329.9,44H327v-7.5c0-2.4-0.9-3.6-2.7-3.6c-1.4,0-2.3,0.7-2.8,2.1c-0.1,0.3-0.1,0.6-0.1,1.1v8
				h-2.9V24.7h2.9v8h0.1c0.9-1.5,2.3-2.2,4-2.2c1.2,0,2.2,0.4,3,1.2c1,1,1.5,2.5,1.5,4.4C329.9,36.2,329.9,44,329.9,44z"/>
			<path id="XMLID_6_" class="st1" d="M346,36.8c0,0.5,0,1-0.1,1.3h-8.8c0,1.3,0.5,2.3,1.3,3c0.7,0.6,1.7,0.9,2.9,0.9
				c1.3,0,2.5-0.2,3.6-0.6l0.5,2c-1.3,0.5-2.7,0.8-4.4,0.8c-2.1,0-3.7-0.6-4.8-1.8c-1.2-1.2-1.8-2.8-1.8-4.9c0-2,0.5-3.7,1.6-5
				c1.1-1.4,2.7-2.1,4.6-2.1c1.9,0,3.4,0.7,4.3,2.1C345.6,33.7,346,35.1,346,36.8z M343.2,36c0-0.9-0.2-1.6-0.6-2.3
				c-0.5-0.8-1.3-1.2-2.3-1.2c-1,0-1.7,0.4-2.3,1.2c-0.5,0.6-0.8,1.4-0.9,2.3C337.1,36,343.2,36,343.2,36z"/>
		</g>
	</g>
</g>
</svg>
