<svg id="Layer_1" data-name="Layer 1" xmlns="http://www.w3.org/2000/svg" viewBox="0 0 500 150"><defs><style>.cls-1{fill:#b6b6b6;}.cls-2{fill:#fff;}.cls-3{fill:#c8102e;fill-rule:evenodd;}</style></defs><title>20200220_AppGallery_Badge_RGB</title><path class="cls-1" d="M1134.73,50H701.24c-1.13,0-2.26,0-3.4,0a50.26,50.26,0,0,0-7.42.66,24.31,24.31,0,0,0-7,2.32,23.9,23.9,0,0,0-6,4.36,23.59,23.59,0,0,0-4.36,6,24.51,24.51,0,0,0-2.31,7,47.24,47.24,0,0,0-.66,7.41c0,1.13,0,2.27-.06,3.41v87.49c0,1.15,0,2.27.06,3.42a47.45,47.45,0,0,0,.66,7.41,24.25,24.25,0,0,0,2.31,7A23.81,23.81,0,0,0,683.39,197a24.66,24.66,0,0,0,7,2.34,50.24,50.24,0,0,0,7.42.65c1.14,0,2.27,0,3.4,0h437.5c1.13,0,2.28,0,3.41,0a49.39,49.39,0,0,0,7.4-.65,25.23,25.23,0,0,0,7.07-2.34,23.08,23.08,0,0,0,6-4.36,23.45,23.45,0,0,0,4.38-6,24.52,24.52,0,0,0,2.29-7,50.05,50.05,0,0,0,.69-7.41c0-1.15,0-2.27,0-3.42,0-1.34,0-2.68,0-4.05V85.3c0-1.36,0-2.7,0-4,0-1.14,0-2.28,0-3.41a49.81,49.81,0,0,0-.69-7.41,24.78,24.78,0,0,0-2.29-7A24,24,0,0,0,1156.62,53a24.86,24.86,0,0,0-7.07-2.32,49.4,49.4,0,0,0-7.4-.66c-1.13,0-2.28,0-3.41,0Z" transform="translate(-670 -50)"/><path d="M701.26,196.76c-1.13,0-2.23,0-3.35,0a47.28,47.28,0,0,1-6.92-.6,22,22,0,0,1-6.13-2,20.68,20.68,0,0,1-9-8.93,21.4,21.4,0,0,1-2-6.14,45,45,0,0,1-.61-6.94c0-.78-.06-3.38-.06-3.38V81.26s0-2.56.06-3.31A44.37,44.37,0,0,1,673.9,71a21.23,21.23,0,0,1,2-6.16,19.94,19.94,0,0,1,3.76-5.17,20.79,20.79,0,0,1,5.19-3.79,21.79,21.79,0,0,1,6.12-2,46.29,46.29,0,0,1,6.94-.61l3.34,0h437.46l3.38,0a44.07,44.07,0,0,1,6.88.6,21.68,21.68,0,0,1,6.18,2,20.63,20.63,0,0,1,8.94,9,21.38,21.38,0,0,1,2,6.11,48,48,0,0,1,.64,7c0,1.05,0,2.18,0,3.3,0,1.39,0,2.71,0,4v79.4c0,1.35,0,2.66,0,4s0,2.31,0,3.45a45.45,45.45,0,0,1-.63,6.86,21,21,0,0,1-2,6.18,20.82,20.82,0,0,1-8.94,8.91,21.53,21.53,0,0,1-6.17,2,46.7,46.7,0,0,1-6.92.6c-1.08,0-2.22,0-3.32,0H701.26Z" transform="translate(-670 -50)"/><path class="cls-2" d="M855.59,151.26H838L833.73,163H826l17.19-43.86h7.3L868.09,163H860Zm-15.35-6h13.1l-4.69-12.56c-.64-1.73-1.28-3.65-1.9-5.75-.57,1.86-1.19,3.75-1.85,5.69Z" transform="translate(-670 -50)"/><path class="cls-2" d="M871.2,138.33q0-3.63-.24-8h7a34.84,34.84,0,0,1,.54,4.15,13.25,13.25,0,0,1,10-4.76,11.27,11.27,0,0,1,10.55,6.86,20.85,20.85,0,0,1,1.71,9,22.44,22.44,0,0,1-2,9.78,14,14,0,0,1-5.46,6.14,15.6,15.6,0,0,1-8.11,2.09,19.9,19.9,0,0,1-6.57-1.12V176l-7.48.64ZM890.86,155c1.52-2.05,2.29-5,2.29-9q0-5.48-1.9-8a6,6,0,0,0-5-2.46,8.07,8.07,0,0,0-4,1,15,15,0,0,0-3.51,2.75v17.5a11.33,11.33,0,0,0,2.6.86,14.15,14.15,0,0,0,2.94.32A7.76,7.76,0,0,0,890.86,155Z" transform="translate(-670 -50)"/><path class="cls-2" d="M905.31,138.33q0-3.63-.24-8h7a32.9,32.9,0,0,1,.55,4.15q4.36-4.76,10-4.76a11.27,11.27,0,0,1,10.55,6.86,20.85,20.85,0,0,1,1.71,9,22.44,22.44,0,0,1-1.95,9.78,14,14,0,0,1-5.47,6.14,15.57,15.57,0,0,1-8.11,2.09,19.9,19.9,0,0,1-6.57-1.12V176l-7.48.64ZM925,155q2.28-3.08,2.28-9,0-5.48-1.89-8a6,6,0,0,0-5-2.46,8.11,8.11,0,0,0-4,1,15,15,0,0,0-3.51,2.75v17.5a11.66,11.66,0,0,0,2.6.86,14.15,14.15,0,0,0,2.94.32A7.78,7.78,0,0,0,925,155Z" transform="translate(-670 -50)"/><path class="cls-2" d="M948.63,160.93a18.19,18.19,0,0,1-7.45-7.67,25.18,25.18,0,0,1-2.6-11.81,24.7,24.7,0,0,1,3-12.55,19.33,19.33,0,0,1,8.16-7.75,25.54,25.54,0,0,1,11.58-2.59,30.32,30.32,0,0,1,7.22.84,30.67,30.67,0,0,1,6.4,2.28l-1.9,5.75a26.56,26.56,0,0,0-11.39-2.84,15.94,15.94,0,0,0-8,2,13.3,13.3,0,0,0-5.35,5.74,20.14,20.14,0,0,0-1.9,9.14,22.22,22.22,0,0,0,1.46,8.32,12.33,12.33,0,0,0,4.64,5.76,14,14,0,0,0,8,2.12,26.64,26.64,0,0,0,4.36-.37,22.05,22.05,0,0,0,4.09-1.06v-8.87H958.77v-5.81h17.41V160a38.84,38.84,0,0,1-7.89,2.69,36.83,36.83,0,0,1-8.22.94A23.23,23.23,0,0,1,948.63,160.93Z" transform="translate(-670 -50)"/><path class="cls-2" d="M1002.75,163a28.71,28.71,0,0,1-.52-4.33,14.42,14.42,0,0,1-4.49,3.5,13.36,13.36,0,0,1-6.25,1.44,11.77,11.77,0,0,1-5.14-1.11,8.43,8.43,0,0,1-3.67-3.33,10.18,10.18,0,0,1-1.37-5.43,9.3,9.3,0,0,1,3.43-7.58q3.42-2.83,11.41-2.83a41.81,41.81,0,0,1,5.93.42v-.64q0-4.32-1.84-6.1a7.38,7.38,0,0,0-5.3-1.77,20.94,20.94,0,0,0-5.12.7A26.85,26.85,0,0,0,985,137.6l-1.18-5.44a28.8,28.8,0,0,1,5.26-1.67,30.87,30.87,0,0,1,6.91-.76,18,18,0,0,1,7.2,1.29,9.44,9.44,0,0,1,4.63,4.42,18.05,18.05,0,0,1,1.67,8.43v13q0,2,.24,6.14ZM998.27,157a12.06,12.06,0,0,0,3.81-2.79v-6a48.42,48.42,0,0,0-5-.33q-4.64,0-6.41,1.5a5,5,0,0,0-1.77,4,4.58,4.58,0,0,0,1.29,3.58,5,5,0,0,0,3.5,1.17A10.49,10.49,0,0,0,998.27,157Z" transform="translate(-670 -50)"/><path class="cls-2" d="M1015.27,155.16v-38.6l7.44-.6v37.87a4.72,4.72,0,0,0,.71,2.95,2.76,2.76,0,0,0,2.26.87,8.13,8.13,0,0,0,2-.34l.88,5.36a12.87,12.87,0,0,1-2.59.68,17.71,17.71,0,0,1-2.89.26Q1015.27,163.61,1015.27,155.16Z" transform="translate(-670 -50)"/><path class="cls-2" d="M1033.88,155.16v-38.6l7.45-.6v37.87a4.72,4.72,0,0,0,.71,2.95,2.76,2.76,0,0,0,2.26.87,8.13,8.13,0,0,0,2-.34l.87,5.36a12.76,12.76,0,0,1-2.58.68,17.73,17.73,0,0,1-2.9.26Q1033.89,163.61,1033.88,155.16Z" transform="translate(-670 -50)"/><path class="cls-2" d="M1077.77,147.62H1056.4q.51,10.27,9.78,10.27a21,21,0,0,0,4.71-.56,28.24,28.24,0,0,0,4.61-1.5l1.64,5.12a27.91,27.91,0,0,1-12.32,2.66,18,18,0,0,1-8.78-2,12.59,12.59,0,0,1-5.38-5.66,20.15,20.15,0,0,1-1.8-8.9,21.05,21.05,0,0,1,1.91-9.32,13.89,13.89,0,0,1,5.31-6,14.91,14.91,0,0,1,7.86-2.06,13.2,13.2,0,0,1,7.73,2.17,12.86,12.86,0,0,1,4.6,5.77,20.49,20.49,0,0,1,1.5,8Zm-7.29-4.75a9.4,9.4,0,0,0-2-5.86,6,6,0,0,0-4.69-1.95,6.31,6.31,0,0,0-4.74,2,10.42,10.42,0,0,0-2.47,5.84Z" transform="translate(-670 -50)"/><path class="cls-2" d="M1083.43,138.54c0-1.79-.09-4.53-.25-8.2h7c.12.91.23,2,.35,3.25s.18,2.29.22,3.08a27.1,27.1,0,0,1,2.56-3.62,10.41,10.41,0,0,1,2.94-2.39,7.76,7.76,0,0,1,3.83-.93,10.31,10.31,0,0,1,3,.37l-.94,6.48a8.6,8.6,0,0,0-7,1,18.88,18.88,0,0,0-4.21,4.43v21h-7.44Z" transform="translate(-670 -50)"/><path class="cls-2" d="M1107.24,176.37a18.05,18.05,0,0,1-2.69-.65l1.36-5.45a19,19,0,0,0,1.91.41,13,13,0,0,0,2.18.2q5,0,7.44-6.39l.49-1.21-12-32.94h8l6.06,18.41a59.88,59.88,0,0,1,1.9,7.23c.57-2.36,1.23-4.72,2-7.08l6.15-18.56h7.53l-12,33.09a34.05,34.05,0,0,1-3.67,7.57,12.81,12.81,0,0,1-4.64,4.26,13.86,13.86,0,0,1-6.47,1.4A20.43,20.43,0,0,1,1107.24,176.37Z" transform="translate(-670 -50)"/><path class="cls-2" d="M826,77.38H839.3l-.37,3.22h-9v6.23h8.53v3h-8.53v6.9h9.53l-.33,3.25H826Z" transform="translate(-670 -50)"/><path class="cls-2" d="M848.49,88.46l-7-11.08h4.44l4.76,8.14,5-8.14H860l-7,10.94L860.57,100h-4.5l-5.39-8.9-5.49,8.9h-4.31Z" transform="translate(-670 -50)"/><path class="cls-2" d="M863.44,77.38h6.1q4.29,0,6.58,1.75a6,6,0,0,1,2.28,5.06,7.34,7.34,0,0,1-1,3.93,6.73,6.73,0,0,1-2.85,2.58,9.4,9.4,0,0,1-4.2.9,17,17,0,0,1-3-.31V100h-3.91Zm9.8,10.1a4.09,4.09,0,0,0,1.25-3.19,3.46,3.46,0,0,0-1.27-3,6.4,6.4,0,0,0-3.75-.92h-2.12v8a14.82,14.82,0,0,0,2.25.23A5.22,5.22,0,0,0,873.24,87.48Z" transform="translate(-670 -50)"/><path class="cls-2" d="M882.26,77.38h3.9V96.66h9.36l-.33,3.34H882.26Z" transform="translate(-670 -50)"/><path class="cls-2" d="M901.46,98.89a9.38,9.38,0,0,1-3.8-4,13,13,0,0,1-1.31-6,13.38,13.38,0,0,1,1.4-6.26,9.76,9.76,0,0,1,4-4.14A12.51,12.51,0,0,1,908,77.07a11.7,11.7,0,0,1,5.89,1.41,9.35,9.35,0,0,1,3.77,4,13,13,0,0,1,1.29,5.93,13.43,13.43,0,0,1-1.41,6.33,9.93,9.93,0,0,1-4,4.14,12.49,12.49,0,0,1-6.15,1.46A11.65,11.65,0,0,1,901.46,98.89Zm10.12-2.77a6.59,6.59,0,0,0,2.46-3,11.33,11.33,0,0,0,.81-4.41,12.25,12.25,0,0,0-.72-4.35,6.43,6.43,0,0,0-2.3-3,7.75,7.75,0,0,0-8.09,0,7,7,0,0,0-2.48,3.08,10.5,10.5,0,0,0-.83,4.25,11.74,11.74,0,0,0,.78,4.4,6.44,6.44,0,0,0,6.37,4.18A6.94,6.94,0,0,0,911.58,96.12Z" transform="translate(-670 -50)"/><path class="cls-2" d="M923.3,77.38h7.08a9.4,9.4,0,0,1,5.87,1.55,5.25,5.25,0,0,1,2,4.42,6.67,6.67,0,0,1-.72,3.16,7,7,0,0,1-1.78,2.23A8,8,0,0,1,933.55,90l7,10H936l-5.89-9h-2.87v9H923.3Zm6.13,10.7a5.46,5.46,0,0,0,2.51-.55A4.12,4.12,0,0,0,933.65,86a4.47,4.47,0,0,0,.61-2.33,2.86,2.86,0,0,0-1.08-2.49,5.26,5.26,0,0,0-3.14-.79h-2.83v7.73Z" transform="translate(-670 -50)"/><path class="cls-2" d="M943.6,77.38h13.33l-.38,3.22h-9v6.23H956v3h-8.53v6.9H957l-.33,3.25H943.6Z" transform="translate(-670 -50)"/><path class="cls-2" d="M971.43,77.38h3.9V100h-3.9Z" transform="translate(-670 -50)"/><path class="cls-2" d="M985.66,80.64h-7l.34-3.26H996.6l-.36,3.26h-6.67V100h-3.91Z" transform="translate(-670 -50)"/><path class="cls-2" d="M1013.55,98.89a9.36,9.36,0,0,1-3.79-4,12.87,12.87,0,0,1-1.32-6,13.38,13.38,0,0,1,1.4-6.26,9.81,9.81,0,0,1,4-4.14,12.56,12.56,0,0,1,6.21-1.46,11.65,11.65,0,0,1,5.89,1.41,9.29,9.29,0,0,1,3.77,4,13,13,0,0,1,1.3,5.93,13.32,13.32,0,0,1-1.42,6.33,9.87,9.87,0,0,1-4,4.14,12.43,12.43,0,0,1-6.15,1.46A11.65,11.65,0,0,1,1013.55,98.89Zm10.13-2.77a6.63,6.63,0,0,0,2.45-3,11.33,11.33,0,0,0,.81-4.41,12.25,12.25,0,0,0-.72-4.35,6.41,6.41,0,0,0-2.29-3,7.76,7.76,0,0,0-8.1,0,7,7,0,0,0-2.48,3.08,10.67,10.67,0,0,0-.83,4.25,11.74,11.74,0,0,0,.78,4.4,6.7,6.7,0,0,0,2.39,3.06,6.8,6.8,0,0,0,4,1.12A7,7,0,0,0,1023.68,96.12Z" transform="translate(-670 -50)"/><path class="cls-2" d="M1035.4,77.38h4.48l11.19,17.53c-.1-1.67-.14-3.2-.14-4.61V77.38h3.62V100h-4.34l-11.36-17.81c.11,2,.17,3.81.17,5.38V100h-3.62Z" transform="translate(-670 -50)"/><g id="形状_1_拷贝_25" data-name="形状 1 拷贝 25"><path class="cls-3" d="M771,77.5H729.49c-19.57,0-26.73,7.16-26.73,26.73v41.54c0,19.57,7.16,26.73,26.73,26.73H771c19.57,0,26.74-7.16,26.74-26.73V104.23C797.76,84.66,790.6,77.5,771,77.5Z" transform="translate(-670 -50)"/></g><path class="cls-2" d="M721.57,125h2.52v12.42h-2.52v-5.05h-5.69v5.05h-2.52V125h2.52v5h5.69Zm14.2,7.11c0,2-1,3.1-2.82,3.1s-2.84-1.11-2.84-3.19v-7h-2.52v7.1c0,3.49,1.94,5.49,5.32,5.49s5.38-2,5.38-5.6v-7h-2.52Zm29.12,1.43L762.07,125H760l-2.82,8.54L754.45,125h-2.68l4.33,12.42h2.09l2.82-8.16,2.82,8.16h2.11L770.26,125h-2.62Zm9.88-1.47h4.59v-2.26h-4.59v-2.54h6.66V125h-9.14v12.4h9.38v-2.26h-6.9Zm9.9,5.33h2.49V125h-2.49Zm-41.4-2.57-1.13,2.58h-2.57L745,125h2.22l5.45,12.41h-2.64L749,134.84Zm.94-2.24H748l-1.92-4.45Z" transform="translate(-670 -50)"/><path class="cls-2" d="M750.26,109.19a15.82,15.82,0,0,1-15.81-15.81h2.23a13.58,13.58,0,0,0,27.16,0h2.23A15.82,15.82,0,0,1,750.26,109.19Z" transform="translate(-670 -50)"/></svg>