<?xml version="1.0" encoding="utf-8"?>
<!-- Generator: Adobe Illustrator 19.0.0, SVG Export Plug-In . SVG Version: 6.00 Build 0)  -->
<svg version="1.1" id="Layer_1" xmlns="http://www.w3.org/2000/svg" xmlns:xlink="http://www.w3.org/1999/xlink" x="0px" y="0px"
	 viewBox="0 0 390 125" style="enable-background:new 0 0 390 125;" xml:space="preserve">
<style type="text/css">
	.st0{fill:#A6A6A6;}
	.st1{fill:#FFFFFF;stroke:#FFFFFF;stroke-width:0.2;stroke-miterlimit:10;}
	.st2{fill:#FFFFFF;}
	.st3{fill:url(#XMLID_74_);}
	.st4{fill:url(#XMLID_75_);}
	.st5{fill:url(#XMLID_78_);}
	.st6{fill:url(#XMLID_80_);}
	.st7{opacity:0.2;enable-background:new    ;}
	.st8{opacity:0.12;enable-background:new    ;}
	.st9{opacity:0.25;fill:#FFFFFF;enable-background:new    ;}
</style>
<g id="XMLID_37_">
	<path id="XMLID_60_" d="M370.7,118.7H19.3c-7.7,0-14.1-6.3-14.1-14.1V20.3c0-7.7,6.3-14.1,14.1-14.1h351.5
		c7.7,0,14.1,6.3,14.1,14.1v84.3C384.8,112.4,378.5,118.7,370.7,118.7z"/>
</g>
<g id="XMLID_92_">
	<g id="XMLID_93_">
		<path id="XMLID_94_" class="st0" d="M370.7,8.5c6.5,0,11.8,5.3,11.8,11.8v84.3c0,6.5-5.3,11.8-11.8,11.8H19.3
			c-6.5,0-11.8-5.3-11.8-11.8V20.3c0-6.5,5.3-11.8,11.8-11.8H370.7 M370.7,6.3H19.3c-7.7,0-14.1,6.3-14.1,14.1v84.3
			c0,7.7,6.3,14.1,14.1,14.1h351.5c7.7,0,14.1-6.3,14.1-14.1V20.3C384.8,12.6,378.5,6.3,370.7,6.3L370.7,6.3z"/>
	</g>
</g>
<g id="XMLID_76_">
	<path id="XMLID_90_" class="st1" d="M138.5,35.1c0,2.4-0.7,4.2-2.1,5.6c-1.6,1.7-3.7,2.5-6.2,2.5c-2.4,0-4.5-0.8-6.2-2.5
		c-1.7-1.7-2.6-3.8-2.6-6.3c0-2.5,0.9-4.6,2.6-6.3c1.7-1.7,3.8-2.5,6.2-2.5c1.2,0,2.4,0.2,3.5,0.7c1.1,0.5,2,1.1,2.6,1.9l-1.5,1.5
		c-1.1-1.3-2.7-2-4.6-2c-1.8,0-3.3,0.6-4.6,1.9c-1.3,1.2-1.9,2.9-1.9,4.9c0,2,0.6,3.6,1.9,4.9c1.3,1.2,2.8,1.9,4.6,1.9
		c1.9,0,3.5-0.6,4.7-1.9c0.8-0.8,1.3-2,1.4-3.4h-6.1v-2h8.2C138.5,34.2,138.5,34.7,138.5,35.1z"/>
	<path id="XMLID_88_" class="st1" d="M151.5,28h-7.7v5.3h6.9v2h-6.9v5.3h7.7v2.1h-9.8V25.9h9.8V28z"/>
	<path id="XMLID_86_" class="st1" d="M160.6,42.8h-2.2V28h-4.7v-2.1h11.6V28h-4.7V42.8z"/>
	<path id="XMLID_84_" class="st1" d="M173.7,42.8V25.9h2.2v16.9H173.7z"/>
	<path id="XMLID_82_" class="st1" d="M185.5,42.8h-2.2V28h-4.7v-2.1h11.6V28h-4.7V42.8z"/>
	<path id="XMLID_79_" class="st1" d="M212.2,40.6c-1.7,1.7-3.7,2.6-6.2,2.6c-2.5,0-4.5-0.9-6.2-2.6c-1.7-1.7-2.5-3.8-2.5-6.3
		s0.8-4.6,2.5-6.3c1.7-1.7,3.7-2.6,6.2-2.6c2.5,0,4.5,0.9,6.2,2.6c1.7,1.7,2.5,3.8,2.5,6.2C214.7,36.8,213.8,38.9,212.2,40.6z
		 M201.4,39.2c1.2,1.3,2.8,1.9,4.6,1.9c1.8,0,3.3-0.6,4.6-1.9c1.2-1.3,1.9-2.9,1.9-4.8s-0.6-3.6-1.9-4.8c-1.2-1.3-2.8-1.9-4.6-1.9
		c-1.8,0-3.3,0.6-4.6,1.9c-1.2,1.3-1.9,2.9-1.9,4.8S200.2,38,201.4,39.2z"/>
	<path id="XMLID_77_" class="st1" d="M217.7,42.8V25.9h2.6l8.2,13.1h0.1l-0.1-3.3v-9.9h2.2v16.9h-2.3l-8.6-13.8h-0.1l0.1,3.3v10.5
		H217.7z"/>
</g>
<path id="XMLID_52_" class="st2" d="M196.8,67.4c-6.6,0-12,5-12,12c0,6.9,5.4,12,12,12c6.6,0,12-5.1,12-12
	C208.8,72.5,203.4,67.4,196.8,67.4z M196.8,86.6c-3.6,0-6.7-3-6.7-7.2c0-4.3,3.1-7.2,6.7-7.2s6.7,2.9,6.7,7.2
	C203.5,83.6,200.4,86.6,196.8,86.6z M170.6,67.4c-6.6,0-12,5-12,12c0,6.9,5.4,12,12,12c6.6,0,12-5.1,12-12
	C182.6,72.5,177.2,67.4,170.6,67.4z M170.6,86.6c-3.6,0-6.7-3-6.7-7.2c0-4.3,3.1-7.2,6.7-7.2c3.6,0,6.7,2.9,6.7,7.2
	C177.4,83.6,174.2,86.6,170.6,86.6z M139.5,71.1v5.1h12.1c-0.4,2.9-1.3,4.9-2.8,6.4c-1.8,1.8-4.5,3.7-9.4,3.7
	c-7.5,0-13.3-6-13.3-13.5s5.8-13.5,13.3-13.5c4,0,7,1.6,9.2,3.6l3.6-3.6c-3-2.9-7.1-5.1-12.7-5.1c-10.2,0-18.8,8.3-18.8,18.6
	c0,10.2,8.6,18.6,18.8,18.6c5.5,0,9.7-1.8,13-5.2c3.4-3.4,4.4-8.1,4.4-11.9c0-1.2-0.1-2.3-0.3-3.2H139.5z M266.8,75
	c-1-2.7-4-7.6-10.2-7.6c-6.2,0-11.3,4.8-11.3,12c0,6.7,5.1,12,11.9,12c5.5,0,8.7-3.4,10-5.3l-4.1-2.7c-1.4,2-3.2,3.3-5.9,3.3
	c-2.7,0-4.6-1.2-5.8-3.6l16-6.6L266.8,75z M250.5,79c-0.1-4.6,3.6-7,6.3-7c2.1,0,3.9,1,4.4,2.5L250.5,79z M237.5,90.6h5.3V55.5h-5.3
	V90.6z M228.9,70.1h-0.2c-1.2-1.4-3.4-2.7-6.3-2.7c-6,0-11.5,5.3-11.5,12c0,6.7,5.5,11.9,11.5,11.9c2.9,0,5.1-1.3,6.3-2.7h0.2v1.7
	c0,4.6-2.4,7-6.4,7c-3.2,0-5.2-2.3-6-4.3l-4.6,1.9c1.3,3.2,4.8,7.1,10.6,7.1c6.2,0,11.4-3.6,11.4-12.5V68.1h-5V70.1z M222.9,86.6
	c-3.6,0-6.7-3-6.7-7.2c0-4.2,3-7.3,6.7-7.3c3.6,0,6.4,3.1,6.4,7.3C229.3,83.6,226.5,86.6,222.9,86.6z M291.5,55.5h-12.6v35.1h5.2
	V77.3h7.3c5.8,0,11.5-4.2,11.5-10.9S297.3,55.5,291.5,55.5z M291.6,72.4h-7.5v-12h7.5c3.9,0,6.1,3.2,6.1,6
	C297.7,69.1,295.5,72.4,291.6,72.4z M324,67.4c-3.8,0-7.7,1.7-9.4,5.4l4.7,1.9c1-1.9,2.8-2.6,4.8-2.6c2.7,0,5.5,1.6,5.5,4.5V77
	c-0.9-0.5-3-1.4-5.5-1.4c-5,0-10.1,2.8-10.1,7.9c0,4.7,4.1,7.7,8.7,7.7c3.5,0,5.5-1.6,6.7-3.4h0.2v2.7h5.1V77.1
	C334.7,70.8,330,67.4,324,67.4z M323.4,86.6c-1.7,0-4.1-0.9-4.1-3c0-2.7,3-3.8,5.6-3.8c2.3,0,3.4,0.5,4.8,1.2
	C329.2,84.3,326.4,86.6,323.4,86.6z M353.1,68.1l-6,15.2h-0.2l-6.2-15.2H335l9.4,21.3l-5.3,11.8h5.5L359,68.1H353.1z M305.9,90.6
	h5.2V55.5h-5.2V90.6z"/>
<g id="XMLID_39_">
	
		<linearGradient id="XMLID_74_" gradientUnits="userSpaceOnUse" x1="66.5067" y1="96.2444" x2="19.3204" y2="49.0581" gradientTransform="matrix(1 0 0 -1 0 127)">
		<stop  offset="0" style="stop-color:#00A0FF"/>
		<stop  offset="6.574450e-03" style="stop-color:#00A1FF"/>
		<stop  offset="0.2601" style="stop-color:#00BEFF"/>
		<stop  offset="0.5122" style="stop-color:#00D2FF"/>
		<stop  offset="0.7604" style="stop-color:#00DFFF"/>
		<stop  offset="1" style="stop-color:#00E3FF"/>
	</linearGradient>
	<path id="XMLID_8_" class="st3" d="M34.6,27.5c-0.8,0.9-1.3,2.2-1.3,4v62.2c0,1.7,0.5,3.1,1.3,4l0.2,0.2l34.8-34.8v-0.4v-0.4
		L34.8,27.3L34.6,27.5z"/>
	
		<linearGradient id="XMLID_75_" gradientUnits="userSpaceOnUse" x1="100.3439" y1="64.4959" x2="32.3107" y2="64.4959" gradientTransform="matrix(1 0 0 -1 0 127)">
		<stop  offset="0" style="stop-color:#FFE000"/>
		<stop  offset="0.4087" style="stop-color:#FFBD00"/>
		<stop  offset="0.7754" style="stop-color:#FFA500"/>
		<stop  offset="1" style="stop-color:#FF9C00"/>
	</linearGradient>
	<path id="XMLID_7_" class="st4" d="M81.2,74.5L69.6,62.9v-0.4v-0.4l11.6-11.6l0.3,0.1l13.8,7.8c3.9,2.2,3.9,5.9,0,8.1l-13.8,7.8
		L81.2,74.5z"/>
	
		<linearGradient id="XMLID_78_" gradientUnits="userSpaceOnUse" x1="75.0182" y1="58.0442" x2="11.0298" y2="-5.9442" gradientTransform="matrix(1 0 0 -1 0 127)">
		<stop  offset="0" style="stop-color:#FF3A44"/>
		<stop  offset="1" style="stop-color:#C31162"/>
	</linearGradient>
	<path id="XMLID_6_" class="st5" d="M81.5,74.4L69.6,62.5l-35,35c1.3,1.4,3.4,1.5,5.8,0.2L81.5,74.4"/>
	
		<linearGradient id="XMLID_80_" gradientUnits="userSpaceOnUse" x1="25.731" y1="120.2377" x2="54.3045" y2="91.6642" gradientTransform="matrix(1 0 0 -1 0 127)">
		<stop  offset="0" style="stop-color:#32A071"/>
		<stop  offset="6.850000e-02" style="stop-color:#2DA771"/>
		<stop  offset="0.4762" style="stop-color:#15CF74"/>
		<stop  offset="0.8009" style="stop-color:#06E775"/>
		<stop  offset="1" style="stop-color:#00F076"/>
	</linearGradient>
	<path id="XMLID_5_" class="st6" d="M81.5,50.6L40.4,27.3c-2.4-1.4-4.5-1.2-5.8,0.2l35,35L81.5,50.6z"/>
	<g id="XMLID_42_">
		<path id="XMLID_4_" class="st7" d="M81.2,74.1L40.4,97.3c-2.3,1.3-4.3,1.2-5.6,0l0,0l-0.2,0.2l0,0l0.2,0.2l0,0
			c1.3,1.2,3.4,1.3,5.6,0l41.1-23.3L81.2,74.1z"/>
		<path id="XMLID_14_" class="st8" d="M34.6,97.1c-0.8-0.9-1.3-2.2-1.3-4v0.4c0,1.7,0.5,3.1,1.3,4l0.2-0.2L34.6,97.1z"/>
	</g>
	<path id="XMLID_3_" class="st8" d="M95.2,66.2l-14,8l0.3,0.3l13.8-7.8c2-1.1,2.9-2.6,2.9-4.1l0,0C98,63.8,97,65.1,95.2,66.2z"/>
	<path id="XMLID_19_" class="st9" d="M40.4,27.7l54.8,31.2c1.8,1,2.8,2.3,2.9,3.6l0,0c0-1.5-1-2.9-2.9-4.1L40.4,27.3
		c-3.9-2.2-7.1-0.4-7.1,4.1v0.4C33.3,27.3,36.5,25.5,40.4,27.7z"/>
</g>
</svg>
